<svg xmlns="http://www.w3.org/2000/svg" viewBox="0 0 242.68 193.43"><title>SA</title><g style="isolation:isolate"><g id="Layer_1" data-name="Layer 1"><path d="M121.34,0C79.54,0,49.07,8.61,49.07,8.61V48.5a442.37,442.37,0,0,1,72.59-6V0Z" fill="#3c4370"/><path d="M121.66,193.28l3.21-1.54c2.83-1.34,68.74-33.49,68.74-88.32V93.21a423.51,423.51,0,0,0-72-6.22Z" fill="#1f2554"/><path d="M49.07,93.21v10.21c0,54.83,65.91,87,68.74,88.32l3.53,1.69.32-.15V87A423.74,423.74,0,0,0,49.07,93.21Z" fill="#3c4370"/><path d="M193.61,8.61S163.3.05,121.66,0V42.55a443.58,443.58,0,0,1,72,6Z" fill="#1f2554"/><path d="M242.68,73.8q-11.76-2.7-23.61-4.86Q217.56,81.08,216,93.22c-4.7,2-9.35,4.17-13.95,6.35q17.77,2.81,35.44,6.86-3.41-9.24-7-18.44C234.49,83.21,238.54,78.48,242.68,73.8Z" fill="#049899"/><path d="M23.6,68.94Q11.77,71.1,0,73.8q6.2,7,12.2,14.19-3.61,9.21-7,18.44,17.66-4.05,35.42-6.86c-4.6-2.18-9.24-4.31-13.93-6.35Q25.13,81.06,23.6,68.94Z" fill="#049899"/><path d="M121.24,47.93c-31.78,0-63.14,4.81-94.67,10.34q2,16.45,4,32.88c30.2-5.3,60.64-9.51,91.09-9.49,30.23,0,60,4.58,90.45,9.49q2-16.44,4-32.88C184.78,52.78,152.8,47.94,121.24,47.93Z" fill="#01a6a6"/><g opacity="0.75" style="mix-blend-mode:multiply"><path d="M99.39,116.93a3.15,3.15,0,0,1-1.22,2.63,5.23,5.23,0,0,1-3.34,1,8,8,0,0,1-3.5-.66v-2a9.64,9.64,0,0,0,1.83.64,8,8,0,0,0,1.8.23,2.89,2.89,0,0,0,1.81-.46,1.54,1.54,0,0,0,.58-1.25,1.57,1.57,0,0,0-.54-1.2,8,8,0,0,0-2.2-1.16,5.85,5.85,0,0,1-2.43-1.6,3.35,3.35,0,0,1-.7-2.15,3,3,0,0,1,1.11-2.48,4.67,4.67,0,0,1,3-.9,8.8,8.8,0,0,1,3.6.79l-.66,1.68a7.81,7.81,0,0,0-3-.71,2.32,2.32,0,0,0-1.52.44,1.43,1.43,0,0,0-.51,1.15,1.63,1.63,0,0,0,.2.84,2.26,2.26,0,0,0,.68.66,11.88,11.88,0,0,0,1.71.81,9.76,9.76,0,0,1,2,1.08,3.14,3.14,0,0,1,1,1.13A3.4,3.4,0,0,1,99.39,116.93Z" fill="#ccc"/><path d="M100.16,110.82h2.21l1.93,5.4a10.11,10.11,0,0,1,.59,2.17H105a10.38,10.38,0,0,1,.28-1.15q.21-.67,2.19-6.42h2.19l-4.08,10.79q-1.11,3-3.7,3a5.72,5.72,0,0,1-1.31-.14v-1.6a4.74,4.74,0,0,0,1,.1,2.13,2.13,0,0,0,2-1.7l.36-.89Z" fill="#ccc"/><path d="M117.46,117.64a2.51,2.51,0,0,1-1,2.14,4.92,4.92,0,0,1-2.91.74,6.81,6.81,0,0,1-3.06-.58v-1.75a7.47,7.47,0,0,0,3.13.78c1.24,0,1.86-.38,1.86-1.13a.92.92,0,0,0-.2-.6,2.54,2.54,0,0,0-.68-.5,13.13,13.13,0,0,0-1.32-.59,6.11,6.11,0,0,1-2.23-1.27,2.39,2.39,0,0,1-.58-1.65,2.16,2.16,0,0,1,1-1.9,4.68,4.68,0,0,1,2.68-.68,7.67,7.67,0,0,1,3.18.68l-.66,1.53a6.94,6.94,0,0,0-2.59-.64c-1.07,0-1.6.3-1.6.91a.92.92,0,0,0,.42.76,8.84,8.84,0,0,0,1.82.85,7.92,7.92,0,0,1,1.71.84,2.4,2.4,0,0,1,.79.87A2.46,2.46,0,0,1,117.46,117.64Z" fill="#ccc"/><path d="M123.2,118.88a4.8,4.8,0,0,0,1.48-.23v1.53a4.25,4.25,0,0,1-.87.24,5.63,5.63,0,0,1-1.1.1c-1.91,0-2.87-1-2.87-3v-5.13h-1.3v-.9l1.39-.74.69-2h1.25v2.11h2.71v1.54h-2.71v5.09a1.44,1.44,0,0,0,.37,1.09A1.33,1.33,0,0,0,123.2,118.88Z" fill="#ccc"/><path d="M130.74,120.52a4.57,4.57,0,0,1-3.47-1.3,4.89,4.89,0,0,1-1.26-3.57,5.36,5.36,0,0,1,1.17-3.66,4,4,0,0,1,3.19-1.34,3.9,3.9,0,0,1,3,1.15,4.36,4.36,0,0,1,1.09,3.15V116H128.1a3.06,3.06,0,0,0,.75,2.13,2.59,2.59,0,0,0,2,.75,7.17,7.17,0,0,0,1.58-.16,8.46,8.46,0,0,0,1.56-.53v1.64a5.63,5.63,0,0,1-1.5.5A8.92,8.92,0,0,1,130.74,120.52Zm-.37-8.34a2,2,0,0,0-1.55.62,3,3,0,0,0-.69,1.78h4.32a2.68,2.68,0,0,0-.56-1.79A2,2,0,0,0,130.37,112.18Z" fill="#ccc"/><path d="M144.77,120.35h-2v-5.87a2.66,2.66,0,0,0-.42-1.64,1.5,1.5,0,0,0-1.29-.53,2,2,0,0,0-1.72.76,4.5,4.5,0,0,0-.54,2.53v4.75h-2v-9.53h1.59l.28,1.25h.1a2.73,2.73,0,0,1,1.15-1,3.85,3.85,0,0,1,1.66-.37,2.89,2.89,0,0,1,2.91,1.5h.14a2.88,2.88,0,0,1,1.19-1.1,3.67,3.67,0,0,1,1.75-.4,3.22,3.22,0,0,1,2.49.86,3.83,3.83,0,0,1,.78,2.63v6.21h-2v-5.87a2.66,2.66,0,0,0-.41-1.64,1.53,1.53,0,0,0-1.3-.53,2,2,0,0,0-1.73.73,3.84,3.84,0,0,0-.54,2.26Z" fill="#ccc"/><path d="M94.64,143.27l-1.25-3.49H88.57l-1.23,3.49H85.17l4.71-12.64h2.24l4.71,12.64ZM92.84,138l-1.18-3.42c-.08-.23-.2-.59-.35-1.09s-.26-.85-.32-1.08a18.48,18.48,0,0,1-.68,2.31L89.18,138Z" fill="#ccc"/><path d="M103.11,133.58a5.57,5.57,0,0,1,1,.08l-.2,1.89a3.82,3.82,0,0,0-.9-.1,2.56,2.56,0,0,0-2,.79,2.83,2.83,0,0,0-.76,2.06v5h-2v-9.52h1.58l.27,1.68h.1a3.76,3.76,0,0,1,1.24-1.35A2.88,2.88,0,0,1,103.11,133.58Z" fill="#ccc"/><path d="M109.72,143.45a4.14,4.14,0,0,1-3.28-1.27,5.25,5.25,0,0,1-1.13-3.62,5.31,5.31,0,0,1,1.18-3.69,4.37,4.37,0,0,1,3.4-1.29,6.29,6.29,0,0,1,2.71.56l-.61,1.62a6.22,6.22,0,0,0-2.12-.5c-1.65,0-2.47,1.1-2.47,3.29A3.91,3.91,0,0,0,108,141a2.14,2.14,0,0,0,1.81.81,5.22,5.22,0,0,0,2.55-.67v1.76a4,4,0,0,1-1.15.46A7.08,7.08,0,0,1,109.72,143.45Z" fill="#ccc"/><path d="M123,143.27h-2v-5.85a2.6,2.6,0,0,0-.44-1.65,1.73,1.73,0,0,0-1.41-.54,2.21,2.21,0,0,0-1.87.76,4.21,4.21,0,0,0-.6,2.56v4.72h-2v-13.4h2v3.41a15.62,15.62,0,0,1-.11,1.74h.13a2.8,2.8,0,0,1,1.15-1.06,3.63,3.63,0,0,1,1.72-.38q3.47,0,3.46,3.48Z" fill="#ccc"/><path d="M125.69,131.23a1.16,1.16,0,0,1,.29-.84,1.18,1.18,0,0,1,.85-.29,1.15,1.15,0,0,1,.83.29,1.12,1.12,0,0,1,.3.84,1.09,1.09,0,0,1-.3.81,1.11,1.11,0,0,1-.83.3,1.14,1.14,0,0,1-.85-.3A1.13,1.13,0,0,1,125.69,131.23Zm2.14,12h-2v-9.52h2Z" fill="#ccc"/><path d="M134.27,141.81a5,5,0,0,0,1.48-.23v1.52a4.08,4.08,0,0,1-.86.25,6.62,6.62,0,0,1-1.1.1c-1.92,0-2.88-1-2.88-3v-5.13h-1.3v-.89l1.4-.74.69-2H133v2.12h2.71v1.53H133v5.1a1.44,1.44,0,0,0,.36,1.08A1.37,1.37,0,0,0,134.27,141.81Z" fill="#ccc"/><path d="M141.81,143.45a4.62,4.62,0,0,1-3.47-1.3,4.89,4.89,0,0,1-1.25-3.57,5.37,5.37,0,0,1,1.16-3.67,4,4,0,0,1,3.19-1.33,3.93,3.93,0,0,1,3,1.14,4.39,4.39,0,0,1,1.1,3.15V139h-6.35a3.15,3.15,0,0,0,.75,2.13,2.59,2.59,0,0,0,2,.74,7.08,7.08,0,0,0,1.57-.16,7.38,7.38,0,0,0,1.56-.53v1.65a6.53,6.53,0,0,1-1.49.5A9.1,9.1,0,0,1,141.81,143.45Zm-.37-8.34a2,2,0,0,0-1.54.61,2.93,2.93,0,0,0-.7,1.78h4.33a2.6,2.6,0,0,0-.57-1.78A1.93,1.93,0,0,0,141.44,135.11Z" fill="#ccc"/><path d="M151.66,143.45a4.16,4.16,0,0,1-3.29-1.27,5.25,5.25,0,0,1-1.12-3.62,5.31,5.31,0,0,1,1.17-3.69,4.38,4.38,0,0,1,3.4-1.29,6.23,6.23,0,0,1,2.71.56l-.61,1.62a6.17,6.17,0,0,0-2.12-.5c-1.64,0-2.47,1.1-2.47,3.29A3.91,3.91,0,0,0,150,141a2.12,2.12,0,0,0,1.8.81,5.26,5.26,0,0,0,2.56-.67v1.76a4,4,0,0,1-1.16.46A7,7,0,0,1,151.66,143.45Z" fill="#ccc"/><path d="M160.1,141.81a5.12,5.12,0,0,0,1.48-.23v1.52a4.38,4.38,0,0,1-.87.25,6.52,6.52,0,0,1-1.1.1c-1.91,0-2.87-1-2.87-3v-5.13h-1.3v-.89l1.39-.74.69-2h1.25v2.12h2.71v1.53h-2.71v5.1a1.4,1.4,0,0,0,.37,1.08A1.33,1.33,0,0,0,160.1,141.81Z" fill="#ccc"/></g><path d="M97.73,115.27a3.18,3.18,0,0,1-1.21,2.64,5.28,5.28,0,0,1-3.35,1,8.06,8.06,0,0,1-3.5-.66v-1.94a9.41,9.41,0,0,0,1.83.63,7.54,7.54,0,0,0,1.81.23,2.87,2.87,0,0,0,1.8-.46,1.51,1.51,0,0,0,.58-1.25,1.59,1.59,0,0,0-.53-1.2A8.35,8.35,0,0,0,93,113.05a5.77,5.77,0,0,1-2.42-1.59,3.39,3.39,0,0,1-.71-2.15,3,3,0,0,1,1.12-2.48,4.61,4.61,0,0,1,3-.91,8.93,8.93,0,0,1,3.6.79l-.65,1.68a7.87,7.87,0,0,0-3-.7,2.29,2.29,0,0,0-1.51.43,1.42,1.42,0,0,0-.52,1.15,1.59,1.59,0,0,0,.21.84,2,2,0,0,0,.68.66,10.91,10.91,0,0,0,1.7.82,9.11,9.11,0,0,1,2,1.07,3.23,3.23,0,0,1,1,1.13A3.43,3.43,0,0,1,97.73,115.27Z" fill="#fff"/><path d="M98.51,109.17h2.2l1.94,5.4a9.9,9.9,0,0,1,.58,2.17h.07a8.39,8.39,0,0,1,.29-1.15c.14-.45.86-2.59,2.18-6.42H108L103.89,120c-.74,2-2,3-3.7,3a5.66,5.66,0,0,1-1.31-.15v-1.6a4.65,4.65,0,0,0,1,.1,2.13,2.13,0,0,0,2.06-1.69l.35-.9Z" fill="#fff"/><path d="M115.81,116a2.49,2.49,0,0,1-1,2.14,4.85,4.85,0,0,1-2.91.74,7,7,0,0,1-3.06-.57v-1.75a7.44,7.44,0,0,0,3.13.77c1.24,0,1.87-.37,1.87-1.12a.9.9,0,0,0-.21-.61,2.59,2.59,0,0,0-.68-.5,12.44,12.44,0,0,0-1.32-.58,6,6,0,0,1-2.22-1.28,2.33,2.33,0,0,1-.58-1.65,2.19,2.19,0,0,1,1-1.9,4.68,4.68,0,0,1,2.68-.67,7.51,7.51,0,0,1,3.18.68L115,111.2a7.18,7.18,0,0,0-2.59-.64c-1.07,0-1.61.31-1.61.92a.91.91,0,0,0,.42.75,9.57,9.57,0,0,0,1.82.86,8.38,8.38,0,0,1,1.72.83,2.35,2.35,0,0,1,1,2.06Z" fill="#fff"/><path d="M121.54,117.23A5,5,0,0,0,123,117v1.52a4.08,4.08,0,0,1-.86.25,6.62,6.62,0,0,1-1.1.09q-2.88,0-2.88-3V110.7h-1.3v-.89l1.4-.74.69-2h1.25v2.12h2.71v1.53h-2.71v5.1a1.44,1.44,0,0,0,.36,1.08A1.37,1.37,0,0,0,121.54,117.23Z" fill="#fff"/><path d="M129.08,118.86a4.62,4.62,0,0,1-3.47-1.29,4.92,4.92,0,0,1-1.25-3.57,5.37,5.37,0,0,1,1.16-3.67,4,4,0,0,1,3.19-1.33,3.93,3.93,0,0,1,3,1.14,4.39,4.39,0,0,1,1.1,3.15v1.1h-6.35a3.15,3.15,0,0,0,.75,2.13,2.63,2.63,0,0,0,2,.74,7.08,7.08,0,0,0,1.57-.16,7.38,7.38,0,0,0,1.56-.53v1.65a6.53,6.53,0,0,1-1.49.5A9.15,9.15,0,0,1,129.08,118.86Zm-.37-8.33a2,2,0,0,0-1.54.61,2.87,2.87,0,0,0-.69,1.78h4.32a2.6,2.6,0,0,0-.57-1.78A1.93,1.93,0,0,0,128.71,110.53Z" fill="#fff"/><path d="M143.11,118.69h-2v-5.87a2.7,2.7,0,0,0-.41-1.63,1.54,1.54,0,0,0-1.3-.54,1.94,1.94,0,0,0-1.71.76,4.43,4.43,0,0,0-.55,2.54v4.74h-2v-9.52h1.58l.29,1.25h.1a2.55,2.55,0,0,1,1.15-1,3.65,3.65,0,0,1,1.66-.37,2.91,2.91,0,0,1,2.91,1.49h.13a3,3,0,0,1,1.19-1.1,3.83,3.83,0,0,1,1.76-.39,3.16,3.16,0,0,1,2.48.86,3.8,3.8,0,0,1,.78,2.62v6.21h-2v-5.87a2.63,2.63,0,0,0-.42-1.63,1.53,1.53,0,0,0-1.29-.54,2,2,0,0,0-1.73.74,3.74,3.74,0,0,0-.55,2.26Z" fill="#fff"/><path d="M93,141.62l-1.26-3.5H86.92l-1.23,3.5H83.52L88.23,129h2.24l4.71,12.64Zm-1.8-5.27L90,132.92q-.14-.34-.36-1.08c-.15-.5-.25-.86-.31-1.09a19.89,19.89,0,0,1-.68,2.32l-1.14,3.28Z" fill="#fff"/><path d="M101.45,131.92a4.65,4.65,0,0,1,1,.09l-.2,1.88a3.68,3.68,0,0,0-.89-.1,2.58,2.58,0,0,0-2,.79,2.89,2.89,0,0,0-.75,2.06v5h-2v-9.53h1.59l.26,1.68h.11a3.74,3.74,0,0,1,1.23-1.35A3,3,0,0,1,101.45,131.92Z" fill="#fff"/><path d="M108.07,141.79a4.19,4.19,0,0,1-3.29-1.26,5.27,5.27,0,0,1-1.12-3.62,5.33,5.33,0,0,1,1.17-3.7,4.38,4.38,0,0,1,3.4-1.29,6.41,6.41,0,0,1,2.71.56l-.61,1.63a6.17,6.17,0,0,0-2.12-.5c-1.64,0-2.47,1.09-2.47,3.28a3.94,3.94,0,0,0,.62,2.41,2.14,2.14,0,0,0,1.8.8,5.15,5.15,0,0,0,2.56-.67v1.77a4,4,0,0,1-1.16.45A7,7,0,0,1,108.07,141.79Z" fill="#fff"/><path d="M121.34,141.62h-2v-5.86a2.53,2.53,0,0,0-.44-1.64,1.72,1.72,0,0,0-1.41-.55,2.23,2.23,0,0,0-1.87.77,4.19,4.19,0,0,0-.6,2.55v4.73h-2v-13.4h2v3.4a15.54,15.54,0,0,1-.1,1.75H115a2.77,2.77,0,0,1,1.15-1.07,3.71,3.71,0,0,1,1.71-.38q3.47,0,3.47,3.49Z" fill="#fff"/><path d="M124,129.57a1.1,1.1,0,0,1,.3-.83,1.14,1.14,0,0,1,.85-.3,1,1,0,0,1,1.12,1.13,1.1,1.1,0,0,1-.29.81,1.13,1.13,0,0,1-.83.3,1.14,1.14,0,0,1-.85-.3A1.06,1.06,0,0,1,124,129.57Zm2.14,12.05h-2v-9.53h2Z" fill="#fff"/><path d="M132.62,140.15a4.8,4.8,0,0,0,1.48-.23v1.53a5.27,5.27,0,0,1-.87.24,5.63,5.63,0,0,1-1.1.1c-1.91,0-2.87-1-2.87-3v-5.13H128v-.9l1.39-.74.69-2h1.25v2.11H134v1.54h-2.71v5.09a1.4,1.4,0,0,0,.37,1.08A1.29,1.29,0,0,0,132.62,140.15Z" fill="#fff"/><path d="M140.16,141.79a4.61,4.61,0,0,1-3.48-1.3,4.93,4.93,0,0,1-1.25-3.57,5.41,5.41,0,0,1,1.16-3.66,4,4,0,0,1,3.2-1.34,3.9,3.9,0,0,1,3,1.15,4.36,4.36,0,0,1,1.09,3.15v1.09h-6.34a3.06,3.06,0,0,0,.74,2.13,2.61,2.61,0,0,0,2,.75,7,7,0,0,0,1.57-.16,8.3,8.3,0,0,0,1.57-.53v1.64a5.75,5.75,0,0,1-1.5.5A9,9,0,0,1,140.16,141.79Zm-.37-8.34a2,2,0,0,0-1.55.62,2.9,2.9,0,0,0-.69,1.78h4.32a2.63,2.63,0,0,0-.57-1.79A1.94,1.94,0,0,0,139.79,133.45Z" fill="#fff"/><path d="M150,141.79a4.16,4.16,0,0,1-3.28-1.26,6.38,6.38,0,0,1,.05-7.32,4.34,4.34,0,0,1,3.39-1.29,6.45,6.45,0,0,1,2.72.56l-.61,1.63a6.27,6.27,0,0,0-2.12-.5c-1.65,0-2.47,1.09-2.47,3.28a4,4,0,0,0,.61,2.41,2.15,2.15,0,0,0,1.81.8,5.12,5.12,0,0,0,2.55-.67v1.77a3.94,3.94,0,0,1-1.15.45A7.15,7.15,0,0,1,150,141.79Z" fill="#fff"/><path d="M158.44,140.15a4.76,4.76,0,0,0,1.48-.23v1.53a4.86,4.86,0,0,1-.86.24,5.7,5.7,0,0,1-1.1.1q-2.88,0-2.88-3v-5.13h-1.3v-.9l1.4-.74.69-2h1.24v2.11h2.72v1.54h-2.72v5.09a1.44,1.44,0,0,0,.37,1.08A1.29,1.29,0,0,0,158.44,140.15Z" fill="#fff"/><g id="_Group_" data-name="&lt;Group&gt;"><g opacity="0.58"><polygon points="65.44 65.26 66.98 68.45 70.43 68.96 67.93 71.44 68.52 74.94 65.44 73.29 62.35 74.94 62.94 71.44 60.44 68.96 63.89 68.45 65.44 65.26" fill="#1a7e98"/></g><polygon points="64.86 64.69 66.4 67.87 69.85 68.39 67.36 70.86 67.95 74.36 64.86 72.71 61.77 74.36 62.36 70.86 59.87 68.39 63.32 67.87 64.86 64.69" fill="#fff"/></g><g id="_Group_2" data-name="&lt;Group&gt;"><g opacity="0.58"><polygon points="176.09 66.2 177.63 69.39 181.09 69.9 178.59 72.38 179.18 75.88 176.09 74.23 173.01 75.88 173.59 72.38 171.1 69.9 174.55 69.39 176.09 66.2" fill="#1a7e98"/></g><polygon points="175.52 65.63 177.06 68.81 180.51 69.32 178.01 71.8 178.6 75.31 175.52 73.65 172.43 75.31 173.02 71.8 170.52 69.32 173.97 68.81 175.52 65.63" fill="#fff"/></g><g opacity="0.58" style="mix-blend-mode:multiply"><path d="M81.28,64.22a2.58,2.58,0,0,0-2.11,1.25,5,5,0,0,0-.53,3q.35,4,3.31,3.71a9.35,9.35,0,0,0,3-.88l.18,2.11a8.38,8.38,0,0,1-3.21.88,5,5,0,0,1-4.09-1.24,6.62,6.62,0,0,1-1.74-4.38,7.32,7.32,0,0,1,.4-3.3,4.85,4.85,0,0,1,1.75-2.29,5.68,5.68,0,0,1,2.9-1,8,8,0,0,1,3.53.54L84,64.78a12.17,12.17,0,0,0-1.38-.43A3.89,3.89,0,0,0,81.28,64.22Z" fill="#099"/><path d="M95.49,73.26l-6.84.4L88,61.79l6.84-.4.12,2.06-4.32.26.15,2.6,4-.24.12,2.07-4,.23L91,71.44l4.33-.26Z" fill="#099"/><path d="M101.35,68.44l.16,4.56L99,73.09l-.42-11.88,3.46-.13a5.94,5.94,0,0,1,3.62.76,3.49,3.49,0,0,1,.74,4.52,3.82,3.82,0,0,1-1.58,1.34q2.82,3.92,3.68,5l-2.8.1-3-4.46Zm-.07-2,.81,0a3.11,3.11,0,0,0,1.75-.46,1.42,1.42,0,0,0,.52-1.27,1.3,1.3,0,0,0-.62-1.18,3.48,3.48,0,0,0-1.82-.3l-.76,0Z" fill="#099"/><path d="M115.59,72.65l-2.53,0-.13-9.79-3.23,0,0-2.1,9-.13,0,2.1-3.23,0Z" fill="#099"/><path d="M121.68,72.61l0-11.89h2.52l0,11.89Z" fill="#099"/><path d="M130.71,72.69l-2.48,0,.21-11.89,6.81.12,0,2.07-4.34-.08,0,3.07,4,.07,0,2.06-4-.07Z" fill="#099"/><path d="M138.44,72.87l.4-11.88,2.52.08L141,73Z" fill="#099"/><path d="M151.8,73.46,145,73.11l.6-11.88,6.84.35-.1,2.06L148,63.42,147.84,66l4,.21-.11,2.06-4-.21-.16,3.07,4.32.22Z" fill="#099"/><path d="M165.62,68.38a5.84,5.84,0,0,1-2,4.36,6.82,6.82,0,0,1-4.93,1.19l-3.36-.26.92-11.86,3.72.29A6.27,6.27,0,0,1,164.34,64,5.65,5.65,0,0,1,165.62,68.38ZM163,68.25q.3-3.82-3.08-4.08l-1.34-.11L158,71.78l1.08.09C161.49,72.05,162.8,70.85,163,68.25Z" fill="#099"/></g><path d="M80.71,63.65A2.56,2.56,0,0,0,78.6,64.9a4.92,4.92,0,0,0-.53,3q.33,4,3.31,3.72a9.62,9.62,0,0,0,3-.88l.17,2.11a8.51,8.51,0,0,1-3.2.88,5,5,0,0,1-4.09-1.24,6.7,6.7,0,0,1-1.75-4.39,7.41,7.41,0,0,1,.4-3.29,4.89,4.89,0,0,1,1.76-2.3,5.83,5.83,0,0,1,2.89-1,8.1,8.1,0,0,1,3.54.55l-.64,2.11c-.46-.17-.92-.32-1.38-.44A3.88,3.88,0,0,0,80.71,63.65Z" fill="#fff"/><path d="M94.91,72.69l-6.83.4-.7-11.87,6.83-.41.12,2.07L90,63.13l.16,2.61,4-.24.12,2.06-4,.24.18,3.06,4.32-.25Z" fill="#fff"/><path d="M100.77,67.87l.17,4.56-2.52.09L98,60.63l3.46-.12a5.93,5.93,0,0,1,3.62.75,3.51,3.51,0,0,1,.75,4.52,3.78,3.78,0,0,1-1.59,1.34c1.89,2.61,3.11,4.3,3.68,5.06l-2.79.1-3-4.46Zm-.07-2.05.81,0a3.11,3.11,0,0,0,1.75-.46,1.44,1.44,0,0,0,.53-1.28,1.3,1.3,0,0,0-.63-1.18,3.55,3.55,0,0,0-1.81-.29l-.76,0Z" fill="#fff"/><path d="M115,72.07l-2.52,0-.14-9.79-3.23,0,0-2.1,9-.12,0,2.1-3.23,0Z" fill="#fff"/><path d="M121.11,72l0-11.9h2.52l0,11.89Z" fill="#fff"/><path d="M130.13,72.11l-2.48,0,.21-11.89,6.82.12,0,2.06-4.33-.07-.06,3.06,4,.07,0,2.06-4-.07Z" fill="#fff"/><path d="M137.86,72.3l.41-11.89,2.52.09-.41,11.88Z" fill="#fff"/><path d="M151.22,72.88l-6.84-.35L145,60.66l6.84.35-.11,2.06-4.32-.22-.13,2.61,4,.2-.1,2.07-4-.21L147,70.58l4.32.22Z" fill="#fff"/><path d="M165,67.81a5.84,5.84,0,0,1-2,4.35,6.79,6.79,0,0,1-4.93,1.19l-3.36-.26.91-11.85,3.72.28a6.34,6.34,0,0,1,4.4,1.88A5.67,5.67,0,0,1,165,67.81Zm-2.61-.14c.19-2.55-.83-3.91-3.08-4.08l-1.34-.1-.6,7.72,1.08.08C160.91,71.48,162.23,70.27,162.43,67.67Z" fill="#fff"/><rect x="68.06" y="6.59" width="108.17" height="34.37" transform="translate(0.53 -2.57) rotate(1.21)" fill="none"/><path d="M98.81,16.25a15.6,15.6,0,0,0-.32,5.82c-.47-.11-.94-.22-1.42-.31-10.12-2-13.3,3.4-12.21,7.88A64.6,64.6,0,0,0,75.72,34c4.2-10.42,13.06-19.49,20.4-20.55C98.52,13.15,99.15,14.86,98.81,16.25ZM120,25.13s-.46.86-.67,1.18a1.08,1.08,0,0,1-1.37.21c-.24-.13-2.52-1.66-3.4-1.6-4.48.34-5.66-1.71-5.8-1.9s-.41-.1-.22.26c.94,1.87,3.82,2.79,3.82,2.79a13,13,0,0,1,.78,3.43,12.58,12.58,0,0,0-2.39-1.68A32.12,32.12,0,0,0,100,22.47c.37-4.31,2.49-10.52,11.74-8.84A8.45,8.45,0,0,1,114.83,15l-.71.76a.43.43,0,0,0,0,.7l1.92,1.74a2.51,2.51,0,0,0,.63,2c.6.82,2.92,3.62,3.23,4A1,1,0,0,1,120,25.13Zm-4.53-6.24,0,0a1,1,0,0,0-1.14.23l-.07.08,1,.56Z" fill="#fff"/><path d="M99.44,25.92a56.09,56.09,0,0,0-14.58,3.72c-1.09-4.48,2.09-9.92,12.21-7.88.48.09,1,.2,1.42.31A19.08,19.08,0,0,0,99.44,25.92Zm.58,0a19.53,19.53,0,0,1,10.74,1.94A32.12,32.12,0,0,0,100,22.47,17.59,17.59,0,0,0,100,25.88Z" fill="#01a6a6"/><path d="M136.78,25.23l4.49.09,0-2.24L136.83,23l0-2.39,5.59.11,0-2.24-7.86-.16-.24,11.45,7.94.17,0-2.24-5.66-.12Zm8.64-5.41a6.29,6.29,0,0,0-1.74,4.37,6.23,6.23,0,0,0,1.53,4.42,5.24,5.24,0,0,0,4,1.82,5.36,5.36,0,0,0,4.41-1.77l0-.06.11-5.26-4.53-.09-.05,2.13,2.37.05,0,2.14a4,4,0,0,1-2.28.56A3.17,3.17,0,0,1,146.85,27a3.84,3.84,0,0,1-.92-2.79A3.89,3.89,0,0,1,147,21.49a3.35,3.35,0,0,1,2.53-1,4.48,4.48,0,0,1,1.37.24,3.36,3.36,0,0,1,1.09.73l1.31-1.74a5.38,5.38,0,0,0-3.85-1.58A5.29,5.29,0,0,0,145.42,19.82ZM129,18.19l-4.26-.09-.24,11.45,2.29.05.07-3.44,1.75,0a3.88,3.88,0,0,0,4.3-3.94v0A3.72,3.72,0,0,0,129,18.19Zm1.58,4.08A1.67,1.67,0,0,1,128.71,24l-1.82,0,.07-3.5,1.78,0a1.64,1.64,0,0,1,1.82,1.77Zm28.82-3.44L154.7,30.19l2.32,0,1-2.53,4.38.09.89,2.57,2.38.05-4.19-11.55Zm-.5,6.69,1.46-3.66,1.29,3.71Z" fill="#fff"/></g></g></svg>